<svg width="400" height="224" viewBox="0 0 400 224" fill="none" xmlns="http://www.w3.org/2000/svg">
<rect width="400" height="224" rx="16" fill="#9724FF"/>
<g opacity="0.1">
<mask id="mask0_2002_613" style="mask-type:alpha" maskUnits="userSpaceOnUse" x="0" y="0" width="400" height="224">
<rect width="400" height="224" rx="16" fill="#9724FF"/>
</mask>
<g mask="url(#mask0_2002_613)">
<mask id="mask1_2002_613" style="mask-type:luminance" maskUnits="userSpaceOnUse" x="-43" y="-180" width="469" height="498">
<path d="M425.537 -180H-43V318H425.537V-180Z" fill="white"/>
</mask>
<g mask="url(#mask1_2002_613)">
<path d="M457.706 270.236L450.523 291.19C449.495 294.19 414.67 394.765 361.986 410.564C308.508 426.601 350.067 264.209 271.449 271.259C192.829 278.317 35.507 440.869 -37.7248 337.518C-110.951 234.171 -256.166 275.422 -256.166 275.422L-245.087 243.102C-245.087 243.102 -93.6133 201.542 -18.4257 310.425C56.7557 419.306 206.517 252.593 281.8 247.793C357.081 243 315.655 397.527 369.13 382.246C422.601 366.956 456.381 265.772 457.706 270.236Z" fill="white"/>
</g>
<mask id="mask2_2002_613" style="mask-type:luminance" maskUnits="userSpaceOnUse" x="-43" y="-180" width="469" height="498">
<path d="M425.537 -180H-43V318H425.537V-180Z" fill="white"/>
</mask>
<g mask="url(#mask2_2002_613)">
<path d="M487.905 182.137L480.255 204.454C474.959 186.584 445.103 281.098 391.633 294.141C338.157 307.181 379.2 176.227 313.933 174.264C248.664 172.308 121.571 351.477 40.5242 226.013C-40.514 100.544 -210.777 143.009 -210.777 143.009L-199.208 109.26C-199.208 109.26 -22.6894 66.4926 60.3067 197.488C143.303 328.483 262.848 145.157 324.774 149.368C386.706 153.582 345.793 276.678 399.26 264.39C452.736 252.099 481.283 159.803 487.905 182.137Z" fill="white"/>
</g>
<mask id="mask3_2002_613" style="mask-type:luminance" maskUnits="userSpaceOnUse" x="-43" y="-180" width="469" height="498">
<path d="M425.537 -180H-43V318H425.537V-180Z" fill="white"/>
</mask>
<g mask="url(#mask3_2002_613)">
<path d="M503.141 137.69L495.534 159.88C487.587 133.082 460.349 223.16 406.875 234.696C353.4 246.238 394.189 131.003 335.595 124.532C277.004 118.07 165.021 305.551 80.0691 169.023C-4.87892 32.503 -187.66 75.5701 -187.66 75.5701L-176.135 41.9471C-176.135 41.9471 12.9109 -1.4262 99.8147 140.627C186.712 282.677 291.145 91.0465 346.399 99.7654C401.648 108.475 360.993 215.86 414.468 205.067C467.941 194.281 493.877 106.423 503.141 137.69Z" fill="white"/>
</g>
<mask id="mask4_2002_613" style="mask-type:luminance" maskUnits="userSpaceOnUse" x="-43" y="-180" width="469" height="498">
<path d="M425.537 -180H-43V318H425.537V-180Z" fill="white"/>
</mask>
<g mask="url(#mask4_2002_613)">
<path d="M518.289 93.4961L510.724 115.566C500.137 79.829 475.506 165.46 422.038 175.506C368.566 185.543 409.088 86.0236 357.176 75.0562C305.257 64.0862 208.389 259.865 119.534 112.288C30.6741 -35.2971 -164.628 8.37794 -164.628 8.37794L-153.146 -25.1175C-153.146 -25.1175 48.4204 -69.0994 139.232 84.0107C230.043 237.121 319.357 37.1833 367.932 50.4076C416.509 63.6256 376.108 155.29 429.58 146.002C483.054 136.708 506.377 53.2951 518.289 93.4961Z" fill="white"/>
</g>
<mask id="mask5_2002_613" style="mask-type:luminance" maskUnits="userSpaceOnUse" x="-43" y="-180" width="469" height="498">
<path d="M425.537 -180H-43V318H425.537V-180Z" fill="white"/>
</mask>
<g mask="url(#mask5_2002_613)">
<path d="M533.351 49.5566L525.832 71.493C512.594 26.8279 490.58 108.023 437.109 116.562C383.637 125.1 423.908 41.2948 378.668 25.8194C333.432 10.353 251.67 214.434 158.907 55.8C66.1443 -102.834 -141.682 -58.5597 -141.682 -58.5597L-130.242 -91.9351C-130.242 -91.9351 83.8498 -136.516 178.562 27.6491C273.281 191.817 347.483 -16.4259 389.387 1.30041C431.283 19.0307 391.143 94.9777 444.617 87.181C498.087 79.3908 518.791 0.420944 533.351 49.5566Z" fill="white"/>
</g>
<mask id="mask6_2002_613" style="mask-type:luminance" maskUnits="userSpaceOnUse" x="-43" y="-180" width="469" height="498">
<path d="M425.537 -180H-43V318H425.537V-180Z" fill="white"/>
</mask>
<g mask="url(#mask6_2002_613)">
<path d="M538.488 34.5698L535.9 42.1199C522.665 -2.55216 501.191 65.516 448.429 70.3859C397.629 75.0776 431.677 5.27142 390.772 -12.1735C346.912 -31.0283 276.688 153.559 179.192 9.85602C79.6868 -136.797 -124.227 -109.482 -124.227 -109.482L-118.176 -127.135C-118.176 -127.135 74.7639 -137.953 179.858 -8.04311C279.325 114.912 346.326 -45.6277 392.197 -25.7605C432.073 -8.4943 404.238 55.2178 452.287 53.4803C504.43 51.6024 526.574 -5.62481 538.488 34.5698Z" fill="white"/>
</g>
<mask id="mask7_2002_613" style="mask-type:luminance" maskUnits="userSpaceOnUse" x="-43" y="-180" width="469" height="498">
<path d="M425.537 -180H-43V318H425.537V-180Z" fill="white"/>
</mask>
<g mask="url(#mask7_2002_613)">
<path d="M543.014 21.3663L541.148 26.8119C530.559 -8.91859 507.84 37.5811 456.216 36.3675C410.987 35.2993 432.565 -22.5404 393.701 -39.5586C345.852 -60.5099 280.907 76.0233 180.598 -26.1564C68.8421 -139.997 -112.049 -145.009 -112.049 -145.009L-106.717 -160.564C-106.717 -160.564 60.7781 -140.092 180.546 -41.9574C280.311 39.7878 344.583 -73.0959 394.406 -51.0474C432.264 -34.2907 416.994 17.8788 459.349 21.5575C510.533 26.0071 533.751 -9.89966 543.014 21.3663Z" fill="white"/>
</g>
<mask id="mask8_2002_613" style="mask-type:luminance" maskUnits="userSpaceOnUse" x="-43" y="-180" width="469" height="498">
<path d="M425.537 -180H-43V318H425.537V-180Z" fill="white"/>
</mask>
<g mask="url(#mask8_2002_613)">
<path d="M547.382 8.62453L545.044 15.4466C537.099 -11.3577 513.437 14.1289 462.651 6.27646C423.197 0.17894 432.138 -46.532 395.274 -63.0098C343.482 -86.1693 278.393 3.897 180.652 -58.2414C51.3352 -140.464 -101.22 -176.6 -101.22 -176.6L-95.4166 -193.532C-95.4166 -193.532 40.6634 -140.638 181.069 -75.4125C275.442 -31.578 342.692 -100.152 396.449 -75.8687C432.318 -59.6697 429.704 -18.2217 466.259 -9.90108C516.659 1.57085 540.76 -13.7093 547.382 8.62453Z" fill="white"/>
</g>
<mask id="mask9_2002_613" style="mask-type:luminance" maskUnits="userSpaceOnUse" x="-43" y="-180" width="469" height="498">
<path d="M425.537 -180H-43V318H425.537V-180Z" fill="white"/>
</mask>
<g mask="url(#mask9_2002_613)">
<path d="M472.587 226.825L464.896 249.262C462.247 240.327 429.778 339.286 376.302 353.825C322.831 368.366 364.128 221.692 292.181 224.241C220.241 226.786 78.03 397.649 0.899033 283.238C-76.2409 168.83 -233.977 210.689 -233.977 210.689L-222.367 176.819C-222.367 176.819 -58.3685 134.66 20.7205 254.598C99.8113 374.529 234.467 199.514 303.071 199.22C371.676 198.926 330.502 337.739 383.976 323.956C437.453 310.167 468.613 213.425 472.587 226.825Z" fill="white"/>
</g>
</g>
</g>
</svg>
