<svg width="12" height="12" viewBox="0 0 12 12" fill="none" xmlns="http://www.w3.org/2000/svg">
<path d="M11 0C11.0563 0 11.1113 0.00571339 11.165 0.0146484C11.1738 0.0161081 11.1827 0.016861 11.1914 0.0185547L11.2012 0.0205078C11.211 0.0225203 11.2207 0.025044 11.2305 0.0273438C11.251 0.0321953 11.2717 0.0367999 11.292 0.0429688C11.3408 0.0578329 11.3873 0.0778027 11.4326 0.0996094C11.4466 0.106345 11.4609 0.11269 11.4746 0.120117C11.6203 0.198874 11.7441 0.312548 11.835 0.450195C11.8597 0.487682 11.8812 0.526615 11.9004 0.566406C11.9222 0.61159 11.9412 0.65838 11.9561 0.707031C11.9623 0.727319 11.9668 0.747985 11.9717 0.768555C11.9893 0.842936 12 0.92022 12 1V11C12 11.5523 11.5523 12 11 12C10.4477 12 10 11.5523 10 11V3.41406L1.70703 11.707C1.3165 12.0975 0.683483 12.0975 0.292969 11.707C-0.0975293 11.3165 -0.0975198 10.6835 0.292969 10.293L8.58594 2H1C0.447715 2 0 1.55228 0 1C0 0.447715 0.447715 0 1 0H11Z" fill="black"/>
</svg>
